HIERARCHY
ROOT Hips
{
	OFFSET -3.958830 18.904000 13.208200
	CHANNELS 6 Xposition Yposition Zposition Zrotation Yrotation Xrotation 
	JOINT LHipJoint
	{
		OFFSET 0.000000 0.000000 0.000000
		CHANNELS 3 Zrotation Yrotation Xrotation
		JOINT LeftUpLeg
		{
			OFFSET 1.800000 -1.400000 0.085000
			CHANNELS 3 Zrotation Yrotation Xrotation
			JOINT LeftLeg
			{
				OFFSET 2.215000 -6.000000 0.000000
				CHANNELS 3 Zrotation Yrotation Xrotation
				JOINT LeftFoot
				{
					OFFSET 2.500000 -6.900000 0.000000
					CHANNELS 3 Zrotation Yrotation Xrotation
					JOINT LeftToeBase
					{
						OFFSET 0.200000 -0.500000 1.950000
						CHANNELS 3 Zrotation Yrotation Xrotation
						End Site
						{
							OFFSET 0.000000 0.000000 0.000000
						}
					}
				}
			}
		}
	}
	JOINT RHipJoint
	{
		OFFSET 0.000000 0.000000 0.000000
		CHANNELS 3 Zrotation Yrotation Xrotation
		JOINT RightUpLeg
		{
			OFFSET -1.800000 -1.400000 0.085000
			CHANNELS 3 Zrotation Yrotation Xrotation
			JOINT RightLeg
			{
				OFFSET -2.215000 -6.000000 0.000000
				CHANNELS 3 Zrotation Yrotation Xrotation
				JOINT RightFoot
				{
					OFFSET -2.500000 -6.900000 0.000000
					CHANNELS 3 Zrotation Yrotation Xrotation
					JOINT RightToeBase
					{
						OFFSET -0.200000 -0.500000 1.950000
						CHANNELS 3 Zrotation Yrotation Xrotation
						End Site
						{
							OFFSET 0.000000 0.000000 0.000000
						}
					}
				}
			}
		}
	}
	JOINT LowerBack
	{
		OFFSET 0.000000 0.000000 0.000000
		CHANNELS 3 Zrotation Yrotation Xrotation
		JOINT Spine
		{
			OFFSET -0.087000 1.940000 -0.288900
			CHANNELS 3 Zrotation Yrotation Xrotation
			JOINT Spine1
			{
				OFFSET 0.000000 1.950000 0.060000
				CHANNELS 3 Zrotation Yrotation Xrotation
				JOINT Neck
				{
					OFFSET 0.000000 0.000000 0.000000
					CHANNELS 3 Zrotation Yrotation Xrotation
					JOINT Neck1
					{
						OFFSET 0.000000 1.600000 0.340000
						CHANNELS 3 Zrotation Yrotation Xrotation
						JOINT Head
						{
							OFFSET 0.000000 1.667000 -0.240000
							CHANNELS 3 Zrotation Yrotation Xrotation
							End Site
							{
								OFFSET 0.000000 0.000000 0.000000
							}
						}
					}
				}
				JOINT LeftShoulder
				{
					OFFSET 0.000000 0.000000 0.000000
					CHANNELS 3 Zrotation Yrotation Xrotation
					JOINT LeftArm
					{
						OFFSET 2.700000 1.550000 -0.730000
						CHANNELS 3 Zrotation Yrotation Xrotation
						JOINT LeftForeArm
						{
							OFFSET 5.450000 0.000000 0.000000
							CHANNELS 3 Zrotation Yrotation Xrotation
							JOINT LeftHand
							{
								OFFSET 3.450000 0.000000 0.000000
								CHANNELS 3 Zrotation Yrotation Xrotation
								JOINT LeftHandIndex1
								{
									OFFSET 0.750000 0.000000 0.000000
									CHANNELS 3 Zrotation Yrotation Xrotation
									End Site
									{
										OFFSET 0.000000 0.000000 0.000000
									}
								}
							}
						}
					}
				}
				JOINT RightShoulder
				{
					OFFSET 0.000000 0.000000 0.000000
					CHANNELS 3 Zrotation Yrotation Xrotation
					JOINT RightArm
					{
						OFFSET -2.700000 1.550000 -0.730000
						CHANNELS 3 Zrotation Yrotation Xrotation
						JOINT RightForeArm
						{
							OFFSET -5.450000 0.000000 0.000000
							CHANNELS 3 Zrotation Yrotation Xrotation
							JOINT RightHand
							{
								OFFSET -3.450000 0.000000 0.000000
								CHANNELS 3 Zrotation Yrotation Xrotation
								JOINT RightHandIndex1
								{
									OFFSET -0.750000 0.000000 0.000000
									CHANNELS 3 Zrotation Yrotation Xrotation
									End Site
									{
										OFFSET 0.000000 0.000000 0.000000
									}
								}
							}
						}
					}
				}
			}
		}
	}
}
MOTION
Frames: 12
Frame Time: 0.016667
0.405770 17.105230 -5.730920 -14.079629 35.881287 -12.762151 -15.461867 13.475688 2.581388 1.724849 -0.543205 -6.729626 -6.074843 6.273979 16.020401 -0.268052 4.305330 3.141753 0.397340 0.015040 0.560310 18.097359 -9.412796 4.414527 0.886080 9.710219 -40.823196 1.551862 -10.892785 56.842150 -1.290222 -8.176047 1.613993 -0.055670 -0.145330 0.240650 -3.741792 -3.078732 -8.446198 18.818182 -7.621430 31.066857 -0.399399 -3.034080 0.598457 4.410233 5.929892 -9.028293 9.231045 -3.101880 34.454743 -4.446270 6.272650 -15.606090 -13.236477 4.850270 1.978058 -47.118422 11.226965 -9.079680 -104.535152 -42.534019 42.474653 -3.435050 3.583003 0.725430 -0.027310 0.200950 0.012650 4.428845 -9.633358 4.675681 60.763611 -13.037358 -16.431752 100.501920 47.410529 39.089260 2.020039 -2.026553 -0.124600 -0.015350 -0.133470 -0.413870 
0.413870 17.056170 -5.673470 -12.231075 34.226940 -11.647024 -15.495569 13.582343 2.746843 0.253041 -0.444071 -6.386361 -6.311748 6.301765 15.873974 -0.213437 4.294534 3.135526 0.399780 0.018870 0.533390 18.039565 -9.489220 4.268471 2.020668 9.143254 -39.609372 -0.562608 -8.561629 53.059611 -1.066890 -7.223362 1.909835 -0.065950 -0.139060 0.256930 -3.529521 -3.289418 -8.423044 15.624757 -6.769757 30.849033 1.349499 -2.936483 0.617184 3.944320 5.981703 -8.930865 9.305629 -2.636876 36.103792 -2.913260 6.021840 -13.428520 -13.089484 5.632465 2.322531 -48.066509 13.192039 -9.832878 -105.843083 -42.180068 42.698389 -3.411512 3.646424 0.694510 -0.022850 0.192190 0.022270 5.490805 -10.155708 3.949428 59.050321 -12.902485 -16.121404 100.055296 46.051068 37.592740 2.038972 -2.057494 -0.091730 -0.053630 -0.136260 -0.389150 
0.424840 17.001670 -5.629480 -10.210548 32.521247 -9.762409 -15.536460 13.565707 2.876891 -1.681416 -0.447730 -6.732076 -6.448293 6.319925 16.160838 -0.155507 4.250222 3.144785 0.394550 0.015440 0.508390 17.997779 -9.503431 4.235403 2.485549 8.928814 -39.910423 -2.248443 -6.645787 49.332699 -0.853533 -6.384393 2.175705 -0.079190 -0.123010 0.279150 -3.326306 -3.331045 -8.425330 12.515877 -5.423605 29.589688 3.059389 -2.349497 0.552659 3.685191 6.594468 -8.881239 10.488424 -2.951134 36.989059 -2.425530 5.799090 -9.990940 -12.946780 6.454155 2.635910 -48.982345 14.785769 -10.059905 -106.909446 -42.032878 43.405174 -3.411838 3.729223 0.627620 0.008310 0.164810 0.032950 6.111984 -10.958179 3.367122 57.918574 -12.771604 -15.581834 99.095781 45.383883 36.565067 2.060267 -2.116221 -0.052920 -0.108610 -0.144790 -0.361130 
0.438680 16.959430 -5.586960 -8.704239 31.527641 -8.207532 -15.579863 13.553699 2.979426 -3.288557 -0.451901 -7.123524 -6.258399 6.275262 16.555773 -0.109903 4.189126 3.153448 0.398410 0.027630 0.502880 17.949745 -9.551924 4.167994 2.783241 8.483260 -39.989674 -3.071566 -5.323878 44.787094 -0.647365 -5.487378 2.459943 -0.079010 -0.129620 0.297950 -3.142989 -3.308628 -8.381726 9.992701 -4.272251 27.847452 4.715322 -1.829609 0.805614 3.557027 7.486496 -8.842899 12.201704 -3.842560 37.694897 -2.466670 5.527850 -7.396740 -12.570268 7.100169 2.753599 -49.963375 15.118994 -9.898218 -106.531842 -41.655234 43.094390 -3.408710 3.793838 0.567120 0.029180 0.154640 0.038500 6.269305 -11.886280 3.030552 57.801060 -12.753016 -15.398130 98.133482 46.441255 37.027295 2.090505 -2.164220 -0.015350 -0.161300 -0.163920 -0.340490 
0.458810 16.927260 -5.545960 -7.400076 31.071772 -7.112844 -15.609179 13.580812 3.083120 -4.784111 -0.318630 -6.960635 -5.556388 6.072018 16.589756 -0.079671 4.100270 3.181311 0.387920 0.014100 0.487760 17.904903 -9.646774 4.050128 2.731319 7.708950 -39.761192 -3.261785 -4.527936 39.969577 -0.460846 -4.615258 2.753109 -0.096430 -0.133120 0.305330 -3.023580 -3.288031 -8.327548 8.047380 -3.938179 26.505576 5.680971 -2.018635 1.090014 3.382031 7.918496 -9.135489 13.182511 -4.133792 38.995278 -2.377270 5.487460 -5.081310 -11.900337 7.125643 3.299264 -51.273487 15.942714 -10.360024 -106.018248 -41.564722 42.505056 -3.390556 3.828072 0.538510 0.036770 0.145770 0.043440 6.140075 -12.116930 2.896365 58.384032 -12.313015 -15.373577 97.104768 47.277895 37.178543 2.118756 -2.185093 0.004280 -0.198970 -0.171680 -0.327970 
0.492360 16.904430 -5.507200 -6.248744 31.257068 -5.842203 -15.635055 13.574547 3.163438 -6.350520 -0.197175 -6.923803 -4.536635 5.781902 16.707502 -0.074129 4.012469 3.219254 0.369800 -0.009020 0.475070 17.873614 -9.715417 3.945225 1.934614 6.856519 -40.197936 -2.462479 -4.353367 35.638536 -0.304950 -3.923666 2.993408 -0.109510 -0.118990 0.309350 -2.939451 -3.249254 -8.258982 6.608038 -3.896295 24.470495 6.475226 -2.520574 1.783767 3.340931 8.359201 -9.366765 14.104128 -4.592169 39.940465 -2.944770 5.512160 -2.973380 -11.348200 6.825715 3.638851 -52.636729 15.609951 -10.585010 -104.039167 -41.492061 41.024346 -3.407183 3.825754 0.508360 0.060400 0.126570 0.046710 5.889517 -12.277811 2.939413 59.351747 -12.121021 -15.501322 96.898135 48.594610 38.140630 2.131443 -2.196945 0.008050 -0.213900 -0.170370 -0.321110 
0.534690 16.893790 -5.473410 -5.849242 32.154224 -4.714105 -15.619986 13.496331 3.155939 -7.276182 0.050570 -6.619958 -3.196389 5.331711 16.086542 -0.105615 3.883774 3.283504 0.319120 -0.063220 0.426600 17.898646 -9.738396 3.945745 0.749437 6.301464 -41.565484 -0.392327 -4.751357 32.020176 -0.174610 -3.463372 3.163883 -0.127130 -0.071470 0.303360 -3.027861 -3.065700 -8.208624 6.792970 -4.416149 21.924214 6.477532 -3.389876 2.617504 3.376700 8.816567 -9.601950 15.080881 -5.152701 40.467686 -3.448180 5.387710 -0.525100 -10.414098 6.468043 3.825286 -54.215090 14.334847 -10.467635 -100.827431 -41.298716 38.854520 -3.454540 3.798240 0.474630 0.104740 0.081520 0.048140 5.002713 -12.739592 3.166106 61.201085 -12.148060 -15.809946 95.555556 49.984485 38.403671 2.117471 -2.192761 -0.013980 -0.207310 -0.141900 -0.313680 
0.574110 16.900890 -5.436350 -5.540625 31.853662 -3.979118 -15.594757 13.405372 3.163148 -8.019284 0.248805 -6.325400 -2.402448 5.037573 15.443015 -0.087368 3.756749 3.341922 0.315500 -0.067590 0.445800 17.930123 -9.781344 3.936827 0.537875 6.044018 -41.673090 1.425254 -4.895208 28.796247 -0.097251 -3.058354 3.313568 -0.137060 -0.079660 0.295580 -3.115932 -2.825244 -8.175931 7.163586 -4.667590 20.180481 6.242656 -3.825869 3.111623 3.519614 9.290883 -9.880930 16.243699 -6.283496 41.543721 -4.506140 5.282500 1.340350 -10.070815 5.970469 4.088184 -55.414851 13.691591 -10.667612 -97.766739 -41.412997 37.070247 -3.460488 3.771573 0.441740 0.114790 0.077030 0.048880 4.437863 -12.780561 3.298348 62.666272 -11.539835 -16.057224 91.514353 50.693168 36.348327 2.139628 -2.191026 -0.001750 -0.218120 -0.163610 -0.309130 
0.632000 16.917460 -5.389260 -5.330306 31.023862 -3.647351 -15.547465 13.308649 3.183514 -8.752268 0.423153 -5.851562 -1.835876 4.851264 15.094555 -0.076828 3.712504 3.372900 0.302530 -0.091630 0.454050 17.978886 -9.860308 3.886706 0.256832 5.736557 -40.907950 3.904568 -5.315367 26.363591 -0.058529 -2.874876 3.387931 -0.151320 -0.075280 0.289970 -3.263887 -2.547241 -8.149192 8.091170 -5.048410 18.746427 5.289599 -4.287856 3.432876 3.815141 9.597669 -9.986824 17.205738 -7.097822 42.899344 -5.242130 5.254890 3.048050 -9.933219 6.001140 4.097093 -56.632677 13.368170 -11.125805 -94.157561 -41.339774 34.785455 -3.472949 3.724749 0.430650 0.124800 0.070600 0.050980 3.758309 -13.308255 3.422764 64.107789 -11.412558 -16.476810 86.804606 50.872778 33.672354 2.135087 -2.175304 -0.006370 -0.216350 -0.169700 -0.310550 
0.677410 16.939480 -5.344110 -4.542925 29.580812 -3.144287 -15.539950 13.244635 3.240220 -9.612289 0.329077 -6.096971 -2.075586 4.927894 15.621424 -0.054027 3.721879 3.365298 0.311160 -0.082910 0.475240 17.984934 -9.882990 3.839857 -0.296588 5.498604 -39.839088 6.692890 -5.813728 24.601965 -0.060456 -2.841292 3.404951 -0.153460 -0.099700 0.277600 -3.243383 -2.452931 -8.146901 7.729042 -5.016194 18.051393 5.279427 -4.367330 3.464026 3.998087 9.713599 -10.087291 17.857122 -7.628411 44.696947 -5.801330 5.408420 3.947260 -9.555508 6.390123 4.094593 -58.448791 13.369258 -11.957696 -89.474535 -40.812716 31.532007 -3.454229 3.670015 0.434010 0.111700 0.084880 0.051780 3.154133 -13.709915 3.432837 64.929842 -11.042021 -16.609759 83.735471 50.601472 31.808016 2.139835 -2.162392 -0.001090 -0.218990 -0.188760 -0.314400 
0.713990 16.965890 -5.306760 -4.133179 27.760035 -2.776482 -15.530444 13.213618 3.264836 -10.127510 -0.148411 -7.307894 -2.037612 5.087434 18.017769 -0.039990 3.852141 3.303655 0.304780 -0.097560 0.487520 17.986048 -9.885864 3.840967 -0.229740 5.554075 -38.576952 9.049067 -5.978624 22.266379 -0.048477 -2.719324 3.454055 -0.165570 -0.112780 0.276550 -3.214193 -2.410705 -8.159556 7.715741 -4.715884 17.824427 5.732832 -3.966135 3.137986 4.088990 9.671356 -10.121386 18.098563 -8.139651 46.277088 -6.418520 5.368580 4.513060 -9.247046 6.865488 3.923902 -60.443842 12.857873 -12.308497 -84.574624 -39.997077 28.374466 -3.465501 3.606694 0.441270 0.106690 0.090670 0.037440 2.746863 -13.883133 3.386288 65.340880 -10.292375 -16.493714 80.576054 50.591896 30.217303 2.146242 -2.129920 0.001070 -0.219360 -0.181160 -0.323210 
0.756730 16.986010 -5.269490 -3.670453 26.210907 -2.094898 -15.525463 13.135073 3.249031 -10.281727 -0.712411 -8.627320 -2.211868 5.346926 20.664891 -0.006465 4.068955 3.216124 0.293240 -0.105270 0.482380 17.998401 -9.867659 3.852647 -0.481800 5.651729 -37.794654 11.242730 -6.090989 20.158885 -0.035877 -2.684034 3.472189 -0.170470 -0.101560 0.289920 -3.185020 -2.305624 -8.119879 7.641335 -4.106911 16.797411 6.441765 -3.374194 3.094694 4.237671 9.932355 -9.879567 18.770398 -9.159029 46.946350 -7.359110 5.020150 5.339270 -8.951006 7.573588 3.358838 -61.698927 11.099035 -11.533604 -79.263198 -38.099428 24.871453 -3.518587 3.559574 0.412620 0.131040 0.080280 0.029450 2.339184 -14.550523 3.317526 65.959901 -9.799924 -16.188197 78.249646 51.505128 29.757364 2.142732 -2.122561 0.012780 -0.223350 -0.168550 -0.316530 
